<svg xmlns="http://www.w3.org/2000/svg" width="312.001" height="68" viewBox="0 0 312.001 68">
  <g id="Group_3" data-name="Group 3" transform="translate(-205 -280)">
    <g id="CloudMu_Logo_Blue_Crop" transform="translate(283.001 295)">
      <path id="Path_10" data-name="Path 10" d="M6.62,35.88a12.35,12.35,0,0,1-4.86-4.81A13.86,13.86,0,0,1,0,24.1a13.74,13.74,0,0,1,1.76-6.94,12.34,12.34,0,0,1,4.86-4.78,14.25,14.25,0,0,1,7-1.71A13.58,13.58,0,0,1,19.75,12,10.19,10.19,0,0,1,24,15.9l-2.67,1.81A8.29,8.29,0,0,0,18,14.77a9.76,9.76,0,0,0-4.37-1,10.29,10.29,0,0,0-5.16,1.28A9,9,0,0,0,4.9,18.7a11,11,0,0,0-1.28,5.4,11,11,0,0,0,1.29,5.41,9,9,0,0,0,3.57,3.62,10.29,10.29,0,0,0,5.16,1.29,10,10,0,0,0,4.37-1,8.16,8.16,0,0,0,3.32-2.92L24,32.35a10,10,0,0,1-4.28,3.9,13.61,13.61,0,0,1-6.08,1.34,14.25,14.25,0,0,1-7.02-1.71Z" fill="#4468c0"/>
      <path id="Path_11" data-name="Path 11" d="M31,0h3.58V37.33H31Z" fill="#4468c0"/>
      <path id="Path_12" data-name="Path 12" d="M48.76,35.85a12.75,12.75,0,0,1-4.84-4.8,13.75,13.75,0,0,1-1.76-6.95,13.74,13.74,0,0,1,1.76-6.94,12.49,12.49,0,0,1,4.84-4.78,14.74,14.74,0,0,1,13.78,0,12.28,12.28,0,0,1,4.81,4.78,13.93,13.93,0,0,1,1.73,6.94,13.94,13.94,0,0,1-1.73,7,12.53,12.53,0,0,1-4.81,4.8,14.51,14.51,0,0,1-13.78,0Zm12-2.72a8.94,8.94,0,0,0,3.49-3.64,11.31,11.31,0,0,0,1.26-5.39,11.25,11.25,0,0,0-1.26-5.38,9,9,0,0,0-3.49-3.65,10.64,10.64,0,0,0-10.12,0,9.17,9.17,0,0,0-3.52,3.65,11,11,0,0,0-1.28,5.38,11.09,11.09,0,0,0,1.28,5.39,9.14,9.14,0,0,0,3.52,3.64A10.57,10.57,0,0,0,60.76,33.13Z" fill="#4468c0"/>
      <path id="Path_13" data-name="Path 13" d="M100.53,10.87V37.33H97.1V32.5a9.76,9.76,0,0,1-3.87,3.75,11.64,11.64,0,0,1-5.64,1.34,11.25,11.25,0,0,1-8.17-2.9c-2-1.93-3-4.75-3-8.48V10.87H80v15c0,2.79.68,4.9,2.06,6.34A7.72,7.72,0,0,0,88,34.37a8.68,8.68,0,0,0,6.59-2.54A9.87,9.87,0,0,0,97,24.76V10.87Z" fill="#4468c0"/>
      <path id="Path_14" data-name="Path 14" d="M135,0V37.33h-3.4V32.1a10.88,10.88,0,0,1-4.25,4.08,12.46,12.46,0,0,1-6,1.41,13.47,13.47,0,0,1-6.75-1.71,12.28,12.28,0,0,1-4.73-4.78,14.15,14.15,0,0,1-1.71-7,14.11,14.11,0,0,1,1.71-7,12.1,12.1,0,0,1,4.73-4.76,13.66,13.66,0,0,1,6.75-1.68A12.52,12.52,0,0,1,127.2,12a11.1,11.1,0,0,1,4.25,3.9V0Zm-8.33,33.13a9.1,9.1,0,0,0,3.53-3.64,11.21,11.21,0,0,0,1.28-5.39,11.14,11.14,0,0,0-1.28-5.38,9.13,9.13,0,0,0-3.53-3.65,9.82,9.82,0,0,0-5-1.28,9.94,9.94,0,0,0-5.06,1.28,9.1,9.1,0,0,0-3.52,3.65,11,11,0,0,0-1.28,5.38,11.09,11.09,0,0,0,1.28,5.39,9.08,9.08,0,0,0,3.52,3.64,10,10,0,0,0,5.06,1.29,9.83,9.83,0,0,0,5.02-1.29Z" fill="#4468c0"/>
      <path id="Path_15" data-name="Path 15" d="M144.23,36.78a2.7,2.7,0,0,1-.78-2,2.64,2.64,0,0,1,.78-1.94,2.57,2.57,0,0,1,1.89-.78,2.67,2.67,0,0,1,1.91.78,2.62,2.62,0,0,1,.8,1.94,2.68,2.68,0,0,1-.8,2,2.62,2.62,0,0,1-1.91.81,2.53,2.53,0,0,1-1.89-.81Z" fill="#4468c0"/>
      <path id="Path_16" data-name="Path 16" d="M197.94,13.54c1.9,1.91,2.84,4.73,2.84,8.45V37.33h-3.57v-15q0-4.12-2-6.29a7.23,7.23,0,0,0-5.61-2.16,8.45,8.45,0,0,0-6.49,2.54,9.92,9.92,0,0,0-2.36,7V37.33h-3.57v-15q0-4.125-2-6.29a7.31,7.31,0,0,0-5.66-2.16,8.48,8.48,0,0,0-6.47,2.54,9.84,9.84,0,0,0-2.39,7V37.33h-3.57V10.87h3.42V15.7a9.53,9.53,0,0,1,3.95-3.7,12.22,12.22,0,0,1,5.78-1.31A11.28,11.28,0,0,1,176,12.08a8.64,8.64,0,0,1,3.65,4.17,10.31,10.31,0,0,1,4.2-4.1,13,13,0,0,1,6.27-1.48,10.47,10.47,0,0,1,7.82,2.87Z" fill="#4468c0"/>
      <path id="Path_17" data-name="Path 17" d="M234,10.87V37.33h-3.42V32.5a9.72,9.72,0,0,1-3.88,3.75,11.63,11.63,0,0,1-5.7,1.34,11.28,11.28,0,0,1-8.18-2.9c-2-1.93-3-4.75-3-8.48V10.87h3.57v15q0,4.18,2.06,6.34a7.74,7.74,0,0,0,5.89,2.17A8.68,8.68,0,0,0,228,31.83a9.88,9.88,0,0,0,2.42-7.07V10.87Z" fill="#4468c0"/>
    </g>
    <g id="cloudmu-icon" transform="translate(204.99 279.98)">
      <g id="Group_2" data-name="Group 2" transform="translate(0.01 0.02)">
        <path id="Path_18" data-name="Path 18" d="M184.59,88.02c.186.157.369.318.549.484C184.959,88.341,184.776,88.177,184.59,88.02Z" transform="translate(-125.377 -59.79)" fill="none"/>
        <path id="Path_19" data-name="Path 19" d="M155.93,76.42a15.929,15.929,0,0,1,1.809.228A16.02,16.02,0,0,0,155.93,76.42Z" transform="translate(-105.911 -51.911)" fill="none"/>
        <path id="Path_20" data-name="Path 20" d="M154.21,76.33c.176.006.353.016.529.026C154.563,76.346,154.386,76.336,154.21,76.33Z" transform="translate(-104.743 -51.85)" fill="none"/>
        <path id="Path_21" data-name="Path 21" d="M142.86,76.921c.3-.058.606-.109.911-.151C143.47,76.812,143.165,76.863,142.86,76.921Z" transform="translate(-97.034 -52.149)" fill="none"/>
        <path id="Path_22" data-name="Path 22" d="M20.845,141.484A5.562,5.562,0,0,1,20.47,141C20.589,141.17,20.714,141.327,20.845,141.484Z" transform="translate(-13.906 -95.774)" fill="none"/>
        <path id="Path_23" data-name="Path 23" d="M183.4,87.05c.067.051.135.106.2.157C183.535,87.156,183.467,87.1,183.4,87.05Z" transform="translate(-124.568 -59.131)" fill="none"/>
        <path id="Path_24" data-name="Path 24" d="M182.04,86.01c.055.042.109.08.164.122C182.149,86.09,182.095,86.049,182.04,86.01Z" transform="translate(-123.645 -58.424)" fill="none"/>
        <path id="Path_25" data-name="Path 25" d="M22.324,143.247c-.109-.106-.215-.215-.314-.327C22.113,143.035,22.215,143.145,22.324,143.247Z" transform="translate(-14.952 -97.078)" fill="none"/>
        <path id="Path_26" data-name="Path 26" d="M180.62,84.99c.035.022.067.048.1.071A1.166,1.166,0,0,1,180.62,84.99Z" transform="translate(-122.68 -57.732)" fill="none"/>
        <path id="Path_27" data-name="Path 27" d="M164.68,77.81c.032.01.064.016.1.026C164.747,77.826,164.712,77.82,164.68,77.81Z" transform="translate(-111.854 -52.855)" fill="none"/>
        <path id="Path_28" data-name="Path 28" d="M162.75,77.37c.055.013.109.026.164.035C162.859,77.392,162.8,77.38,162.75,77.37Z" transform="translate(-110.543 -52.556)" fill="none"/>
        <path id="Path_29" data-name="Path 29" d="M193.94,98.52c.055.083.112.167.167.253C194.052,98.687,194,98.6,193.94,98.52Z" transform="translate(-131.727 -66.921)" fill="none"/>
        <path id="Path_30" data-name="Path 30" d="M35.9,149.322l2.015-.01,20.7-.013-23.935.016C35.026,149.335,35.389,149.322,35.9,149.322Z" transform="translate(-23.558 -101.411)" fill="none"/>
        <path id="Path_31" data-name="Path 31" d="M188.81,92.02a16,16,0,0,1,1.209,1.456A16,16,0,0,0,188.81,92.02Z" transform="translate(-128.243 -62.506)" fill="none"/>
        <path id="Path_32" data-name="Path 32" d="M187.7,90.87c.1.1.205.209.308.314C187.905,91.079,187.8,90.976,187.7,90.87Z" transform="translate(-127.489 -61.725)" fill="none"/>
        <path id="Path_33" data-name="Path 33" d="M25.47,145.962c-.144-.09-.286-.183-.42-.282C25.185,145.779,25.326,145.872,25.47,145.962Z" transform="translate(-17.017 -98.952)" fill="none"/>
        <path id="Path_34" data-name="Path 34" d="M27.258,147.065c-.132-.064-.26-.132-.388-.205C27,146.934,27.127,147,27.258,147.065Z" transform="translate(-18.253 -99.754)" fill="none"/>
        <path id="Path_35" data-name="Path 35" d="M23.836,144.7c-.157-.119-.308-.247-.456-.382C23.528,144.452,23.678,144.58,23.836,144.7Z" transform="translate(-15.883 -98.029)" fill="none"/>
        <path id="Path_36" data-name="Path 36" d="M29.1,147.955a.2.2,0,0,0,.022.006c-.189-.064-.372-.141-.555-.221C28.743,147.817,28.923,147.891,29.1,147.955Z" transform="translate(-19.408 -100.351)" fill="none"/>
        <path id="Path_37" data-name="Path 37" d="M31.635,148.736a6.286,6.286,0,0,1-1.225-.276A4.9,4.9,0,0,0,31.635,148.736Z" transform="translate(-20.658 -100.84)" fill="none"/>
        <path id="Path_38" data-name="Path 38" d="M192.87,96.96c.071.1.141.2.208.3C193.011,97.156,192.941,97.056,192.87,96.96Z" transform="translate(-131 -65.862)" fill="none"/>
        <path id="Path_39" data-name="Path 39" d="M114.029,93.32c-.157.18-.311.363-.459.549C113.718,93.682,113.872,93.5,114.029,93.32Z" transform="translate(-77.14 -63.389)" fill="none"/>
        <path id="Path_40" data-name="Path 40" d="M112.115,95.83q-.2.265-.395.539Q111.912,96.095,112.115,95.83Z" transform="translate(-75.883 -65.094)" fill="none"/>
        <path id="Path_41" data-name="Path 41" d="M110.137,98.28c-.173.257-.34.52-.5.789C109.8,98.8,109.964,98.537,110.137,98.28Z" transform="translate(-74.471 -66.758)" fill="none"/>
        <path id="Path_42" data-name="Path 42" d="M118.523,88.68c-.18.157-.353.318-.523.481C118.17,89,118.346,88.834,118.523,88.68Z" transform="translate(-80.149 -60.238)" fill="none"/>
        <path id="Path_43" data-name="Path 43" d="M108.264,147.351c-.17-.3-.334-.61-.484-.921C107.934,146.744,108.094,147.049,108.264,147.351Z" transform="translate(-73.207 -99.462)" fill="none"/>
        <path id="Path_44" data-name="Path 44" d="M186.49,89.71c.106.1.209.2.308.3Q186.649,89.854,186.49,89.71Z" transform="translate(-126.667 -60.937)" fill="none"/>
        <path id="Path_45" data-name="Path 45" d="M106.42,143.31c.1.253.215.5.33.754C106.635,143.817,106.519,143.567,106.42,143.31Z" transform="translate(-72.284 -97.343)" fill="none"/>
        <path id="Path_46" data-name="Path 46" d="M115.47,91.344q.313-.346.645-.674Q115.783,91,115.47,91.344Z" transform="translate(-78.43 -61.589)" fill="none"/>
        <path id="Path_47" data-name="Path 47" d="M120.883,86.75c-.173.135-.343.273-.513.414C120.54,87.023,120.71,86.885,120.883,86.75Z" transform="translate(-81.758 -58.927)" fill="none"/>
        <path id="Path_48" data-name="Path 48" d="M140.892,77.34c-.154.032-.3.064-.459.1-.087.022-.173.048-.263.071C140.407,77.446,140.648,77.391,140.892,77.34Z" transform="translate(-95.207 -52.536)" fill="none"/>
        <path id="Path_49" data-name="Path 49" d="M134.54,78.99c-.289.1-.577.205-.86.321C133.966,79.2,134.251,79.086,134.54,78.99Z" transform="translate(-90.799 -53.656)" fill="none"/>
        <path id="Path_50" data-name="Path 50" d="M137.774,78.13c-.221.061-.439.128-.654.2C137.335,78.258,137.553,78.191,137.774,78.13Z" transform="translate(-93.135 -53.072)" fill="none"/>
        <path id="Path_51" data-name="Path 51" d="M148.754,76.31a15.544,15.544,0,0,0-2.554.122,16.123,16.123,0,0,1,2.011-.128C148.394,76.3,148.574,76.3,148.754,76.31Z" transform="translate(-99.302 -51.83)" fill="none"/>
        <path id="Path_52" data-name="Path 52" d="M131.645,80.29c-.215.09-.427.186-.635.286C131.222,80.473,131.433,80.38,131.645,80.29Z" transform="translate(-88.985 -54.539)" fill="none"/>
        <path id="Path_53" data-name="Path 53" d="M123.441,84.54q-.385.255-.751.529Q123.061,84.8,123.441,84.54Z" transform="translate(-83.334 -57.426)" fill="none"/>
        <path id="Path_54" data-name="Path 54" d="M125.883,83.01c-.263.151-.52.308-.773.475C125.363,83.318,125.62,83.161,125.883,83.01Z" transform="translate(-84.978 -56.387)" fill="none"/>
        <path id="Path_55" data-name="Path 55" d="M128.9,81.62c-.192.1-.385.2-.574.3C128.519,81.819,128.709,81.716,128.9,81.62Z" transform="translate(-87.165 -55.443)" fill="none"/>
        <path id="Path_56" data-name="Path 56" d="M34.008.02a34,34,0,0,0-34,33.546v.911A34,34,0,0,0,33.579,68.02h.86a34,34,0,0,0-.43-68ZM60.526,29.482c.016.019.032.035.051.055a15.569,15.569,0,0,1,1.209,1.456c.032.042.064.087.093.128.071.1.141.2.209.3.045.067.093.135.138.205s.112.167.167.253c.1.157.2.314.292.478h0a15.906,15.906,0,0,1,1.976,5.556,16.4,16.4,0,0,1,.186,2.037h0a15.893,15.893,0,0,1-15.921,16.03,16.221,16.221,0,0,1-2.137-.141,16.032,16.032,0,0,1-11.716-7.917l-20.7.013-2.015.01c-.51,0-.873.01-1.216-.006h-.093L11,47.925a5.047,5.047,0,0,1-1.225-.276l-.035-.01a.206.206,0,0,0-.022-.006c-.183-.064-.359-.138-.536-.215-.051-.022-.1-.051-.157-.077-.132-.064-.26-.132-.388-.205l-.167-.1c-.144-.09-.286-.183-.42-.282-.026-.019-.051-.035-.077-.055a5.738,5.738,0,0,1-.456-.382c-.042-.038-.083-.08-.125-.119-.109-.106-.215-.215-.314-.327-.038-.045-.08-.087-.119-.132a5.567,5.567,0,0,1-.375-.484A9.528,9.528,0,0,1,4.755,39.09a8.186,8.186,0,0,1,8.177-7.8c.071,0,.144,0,.212,0,.01-.18.016-.363.032-.539a16.669,16.669,0,0,1,32.061-5.819c.154-.035.3-.067.459-.1.048-.01.1-.022.144-.032.3-.061.606-.109.911-.151.055-.006.109-.013.164-.022a16.286,16.286,0,0,1,2.554-.122h.013c.176.006.353.016.529.026a.071.071,0,0,1,.026,0,16.114,16.114,0,0,1,1.809.228c.125.022.25.048.375.074.055.013.109.022.164.035.154.032.3.071.456.106.032.01.064.016.1.026a15.887,15.887,0,0,1,5.014,2.278c.035.022.067.048.1.071.119.083.237.167.353.253.055.042.109.08.164.122.093.071.183.141.273.212.067.051.135.106.2.157l.183.154c.186.157.369.318.549.484.019.019.042.035.061.055.106.1.209.2.308.3l.077.077C60.324,29.271,60.426,29.373,60.526,29.482Z" transform="translate(-0.01 -0.02)" fill="#3a5da8"/>
        <path id="Path_57" data-name="Path 57" d="M134.581,80.911l-.308-.3c-.019-.019-.042-.035-.061-.055-.18-.167-.362-.327-.549-.484l-.183-.154c-.064-.055-.132-.106-.2-.157-.09-.071-.183-.144-.273-.212-.055-.042-.109-.08-.164-.122-.115-.087-.234-.17-.353-.253-.035-.022-.067-.048-.1-.071a15.888,15.888,0,0,0-5.014-2.278c-.032-.01-.064-.016-.1-.026-.151-.038-.3-.074-.456-.106-.055-.013-.109-.026-.164-.035-.125-.026-.25-.051-.375-.074a16.021,16.021,0,0,0-1.809-.228.071.071,0,0,1-.026,0c-.176-.013-.353-.019-.529-.026H123.9q-.269-.01-.539-.01a16.084,16.084,0,0,0-2.011.128c-.055.006-.109.013-.164.022-.3.042-.61.09-.911.151-.048.01-.1.022-.144.032-.241.051-.481.106-.722.167-.109.029-.218.055-.324.087-.221.061-.439.128-.654.2-.08.026-.16.048-.241.077-.289.1-.577.205-.86.321-.074.029-.148.064-.221.1-.215.09-.427.186-.635.286-.1.045-.192.093-.286.141-.192.1-.385.2-.574.3-.087.048-.173.093-.26.144-.263.151-.52.308-.773.475l-.026.016q-.385.255-.751.529c-.077.058-.154.119-.231.176-.173.135-.343.273-.513.414-.08.067-.16.135-.237.205-.18.157-.353.318-.523.481-.055.055-.112.1-.167.157q-.332.327-.645.674c-.051.058-.1.119-.151.176-.157.18-.311.363-.459.549-.067.083-.132.167-.2.253q-.2.265-.395.539c-.058.083-.115.164-.173.247-.173.257-.34.52-.5.789,0,.006-.01.013-.013.019h27.515c-.093-.16-.192-.321-.292-.478-.055-.083-.109-.17-.167-.253-.045-.067-.09-.138-.138-.205-.067-.1-.138-.2-.209-.3-.032-.042-.061-.087-.093-.128a15.907,15.907,0,0,0-1.209-1.456c-.016-.019-.032-.035-.051-.055-.1-.106-.2-.212-.308-.314A.606.606,0,0,0,134.581,80.911Z" transform="translate(-74.45 -51.843)" fill="#eb2436"/>
        <path id="Path_58" data-name="Path 58" d="M102.79,108.393h31.859a16.29,16.29,0,0,0-.186-2.037,15.842,15.842,0,0,0-1.976-5.556H104.971A15.852,15.852,0,0,0,102.79,108.393Z" transform="translate(-69.818 -68.47)" fill="#131a6d"/>
        <path id="Path_59" data-name="Path 59" d="M103.961,130.507c.1.253.215.5.33.754.039.08.071.167.109.247.151.311.311.619.484.921H132.6a15.893,15.893,0,0,0,2.063-7.969H102.8A16.257,16.257,0,0,0,103.961,130.507Z" transform="translate(-69.825 -84.54)" fill="#ffd600"/>
        <path id="Path_60" data-name="Path 60" d="M109.29,149.293a16.027,16.027,0,0,0,11.716,7.917,16.224,16.224,0,0,0,2.137.141A16.049,16.049,0,0,0,137,149.29H109.29Z" transform="translate(-74.233 -101.404)" fill="#00a650"/>
        <path id="Path_61" data-name="Path 61" d="M44.465,77.655c-.115-.25-.228-.5-.33-.754a16.321,16.321,0,0,1-1.161-6.047,15.875,15.875,0,0,1,2.181-7.6c0-.006.01-.013.013-.019.157-.269.327-.529.5-.789.055-.083.115-.164.173-.247q.192-.274.395-.539l.2-.253c.148-.186.3-.369.459-.549.051-.058.1-.119.151-.176q.313-.346.645-.674c.055-.055.112-.106.167-.157.17-.164.346-.327.523-.481.08-.071.16-.138.237-.205.167-.141.34-.279.513-.414.077-.061.154-.119.231-.176.247-.183.494-.363.751-.529l.026-.016c.253-.167.51-.324.773-.475l.26-.144c.189-.106.382-.205.574-.3.1-.048.189-.1.286-.141.209-.1.423-.2.635-.286l.221-.1c.282-.115.571-.221.86-.321l.241-.077c.218-.071.436-.138.654-.2l.324-.087c.087-.022.173-.048.263-.071A16.669,16.669,0,0,0,23.16,61.65c-.013.176-.022.359-.032.539-.067,0-.141,0-.212,0a8.189,8.189,0,0,0-8.177,7.8,9.51,9.51,0,0,0,1.825,6.169,6.1,6.1,0,0,0,.375.484c.038.045.077.09.119.132.1.112.209.221.314.327.042.038.08.08.125.119.148.135.3.263.456.382.026.019.051.035.077.055.138.1.279.2.42.282.055.032.109.064.167.1.128.074.257.141.388.205.051.026.1.051.157.077a5.881,5.881,0,0,0,.555.221l.035.01a6.16,6.16,0,0,0,1.225.276l.051.01h.093l23.935-.016c-.17-.3-.334-.61-.484-.921A2.037,2.037,0,0,1,44.465,77.655Z" transform="translate(-9.998 -30.934)" fill="#fff"/>
      </g>
    </g>
  </g>
</svg>
